<?xml version="1.0" encoding="UTF-8"?>
<svg width="82px" height="20px" viewBox="0 0 82 20" version="1.1" xmlns="http://www.w3.org/2000/svg" xmlns:xlink="http://www.w3.org/1999/xlink">
    <!-- Generator: Sketch 52.6 (67491) - http://www.bohemiancoding.com/sketch -->
    <title>LOGO</title>
    <desc>Created with Sketch.</desc>
    <g id="Symbols" stroke="none" stroke-width="1" fill="none" fill-rule="evenodd">
        <g id="top-bar-2" transform="translate(-135.000000, -20.000000)" fill-rule="nonzero">
            <g id="LOGO" transform="translate(135.000000, 19.921788)">
                <path d="M71.9739327,20.0774707 C66.170092,20.0774707 62.0064672,15.6278007 62.0064672,10.0782123 C61.9550384,7.42291411 62.9923551,4.86037895 64.8814548,2.97598759 C66.7705544,1.09159624 69.3500583,0.0463250665 72.0307094,0.0789538945 C77.83455,0.0789538945 81.9981749,4.52862388 81.9981749,10.0782123 C82.0496037,12.7335105 81.0122869,15.2960456 79.1231873,17.180437 C77.2340877,19.0648283 74.6545838,20.1100995 71.9739327,20.0774707 Z M72.0307094,15.5340577 C73.4914456,15.5587521 74.8985418,14.9891559 75.9238105,13.9581204 C76.9490792,12.9270848 77.5028774,11.524757 77.4560387,10.0782123 C77.4835326,8.62740556 76.9156197,7.22763697 75.8822603,6.1992276 C74.8489009,5.17081822 73.4385436,4.60179302 71.9739327,4.62236693 C70.5126521,4.59586211 69.1044771,5.16488275 68.0788037,6.19632524 C67.0531304,7.22776772 66.4999292,8.6311555 66.5486034,10.0782123 C66.5211094,11.529019 67.0890224,12.9287876 68.1223818,13.957197 C69.1557412,14.9856064 70.5660985,15.5546316 72.0307094,15.5340577 Z M42.8285589,20.0774707 L42.8285589,0.0789538945 L51.4586177,0.0789538945 C53.8621647,0.0789538945 55.7231788,0.791401055 56.9659578,2.11005326 C58.0866555,3.38732122 58.6653403,5.04444144 58.5809395,6.73471026 C58.5809395,9.96572063 56.9344152,11.9905705 54.5371766,12.9342505 L59.1487065,20.0774707 L54.2911442,20.0774707 L50.1906046,13.6779453 L46.9858752,13.6779453 L46.9858752,20.0774707 L42.8285589,20.0774707 Z M47.3643866,10.0782123 L51.4901603,10.0782123 C53.4773448,10.0782123 54.6444215,8.82830499 54.6444215,6.8784496 C54.6444215,4.79110441 53.4268767,3.71618414 51.4460006,3.71618414 L47.3959292,3.71618414 L47.3643866,10.0782123 Z M13.4497699,20.0774707 L0,20.0774707 L0,0.0789538945 L4.44750833,0.0789538945 L4.44750833,15.5340577 L13.4497699,15.5340577 L13.4497699,20.0774707 Z M29.5428107,20.0774707 L29.5428107,4.62236693 L23.6443422,4.62236693 L23.6443422,0.0789538945 L39.9644898,0.0789538945 L39.9644898,4.62236693 L34.0723298,4.62236693 L34.0723298,20.0774707 L29.5428107,20.0774707 Z M16.2949135,20.0774707 L16.2949135,7.42840882 L20.7865815,7.42840882 L20.7865815,20.0774707 L16.2949135,20.0774707 Z" id="Combined-Shape-3" fill="#111320"></path>
                <polygon id="Fill-15-3" fill="#00A451" points="16 5.07821229 21 5.07821229 21 0.0782122905 16 0.0782122905"></polygon>
            </g>
        </g>
    </g>
</svg>